<?xml version="1.0" encoding="utf-8"?>
<!-- Generator: Adobe Illustrator 24.1.1, SVG Export Plug-In . SVG Version: 6.00 Build 0)  -->
<svg version="1.1" id="Capa_1" xmlns="http://www.w3.org/2000/svg" xmlns:xlink="http://www.w3.org/1999/xlink" x="0px" y="0px"
	 viewBox="0 0 97.9 81.4" style="enable-background:new 0 0 97.9 81.4;" xml:space="preserve">
<style type="text/css">
	.st0{fill:url(#SVGID_1_);}
	.st1{fill:url(#SVGID_2_);}
	.st2{fill:url(#SVGID_3_);}
	.st3{fill:url(#SVGID_4_);}
	.st4{fill:url(#SVGID_5_);}
	.st5{fill:url(#SVGID_6_);}
	.st6{fill:url(#SVGID_7_);}
	.st7{fill:url(#SVGID_8_);}
	.st8{fill:url(#SVGID_9_);}
</style>
<g>
	<linearGradient id="SVGID_1_" gradientUnits="userSpaceOnUse" x1="29.4474" y1="21.8586" x2="80.2547" y2="56.642">
		<stop  offset="0" style="stop-color:#00B6D2"/>
		<stop  offset="0.3024" style="stop-color:#00B5D6"/>
		<stop  offset="0.7683" style="stop-color:#00B0E2"/>
		<stop  offset="1" style="stop-color:#00AEE8"/>
	</linearGradient>
	<path class="st0" d="M97.2,15.3L92,28.9c-1.7,4.4-2.4,9-2.4,13.7v0.1c0,21.3-17.3,38.6-38.6,38.6c-14.2,0-26.6-7.7-33.3-19.1
		l16-9.4c3.5,4.4,9,7.1,15,7.1c10.7,0,19.3-8.6,19.3-19.3c0-2.6-0.5-5-1.4-7.2L97.2,15.3z"/>
	<linearGradient id="SVGID_2_" gradientUnits="userSpaceOnUse" x1="43.2506" y1="32.6005" x2="53.9929" y2="48.7525">
		<stop  offset="0" style="stop-color:#EE738B"/>
		<stop  offset="1" style="stop-color:#A11156"/>
	</linearGradient>
	<circle class="st1" cx="48.6" cy="40.7" r="9.7"/>
	<g>
		<linearGradient id="SVGID_3_" gradientUnits="userSpaceOnUse" x1="33.2995" y1="64.9717" x2="25.8739" y2="53.6378">
			<stop  offset="0" style="stop-color:#FFFFFF"/>
			<stop  offset="8.819947e-02" style="stop-color:#F8F9FB"/>
			<stop  offset="0.2246" style="stop-color:#E3E8EE"/>
			<stop  offset="0.3923" style="stop-color:#C2CCDA"/>
			<stop  offset="0.5846" style="stop-color:#91A9BE"/>
			<stop  offset="0.7948" style="stop-color:#50829F"/>
			<stop  offset="1" style="stop-color:#005F80"/>
		</linearGradient>
		<path class="st2" d="M33.6,52.8l-16,9.4c2.4,4.1,5.5,7.7,9.2,10.6l16.6-13.6C39.6,58.2,36.1,55.9,33.6,52.8z"/>
		<linearGradient id="SVGID_4_" gradientUnits="userSpaceOnUse" x1="85.0159" y1="31.0886" x2="77.5902" y2="19.7547">
			<stop  offset="0" style="stop-color:#FFFFFF"/>
			<stop  offset="8.819947e-02" style="stop-color:#F8F9FB"/>
			<stop  offset="0.2246" style="stop-color:#E3E8EE"/>
			<stop  offset="0.3923" style="stop-color:#C2CCDA"/>
			<stop  offset="0.5846" style="stop-color:#91A9BE"/>
			<stop  offset="0.7948" style="stop-color:#50829F"/>
			<stop  offset="1" style="stop-color:#005F80"/>
		</linearGradient>
		<path class="st3" d="M66.5,33.4c0.7,1.8,1.2,3.8,1.4,5.9l29.4-24L66.5,33.4z"/>
	</g>
	<linearGradient id="SVGID_5_" gradientUnits="userSpaceOnUse" x1="93.4427" y1="60.1222" x2="46.2834" y2="62.2066">
		<stop  offset="0" style="stop-color:#FFFFFF"/>
		<stop  offset="0.9984" style="stop-color:#FFFFFF;stop-opacity:0"/>
	</linearGradient>
	<path class="st4" d="M51,81.4c21.3,0,38.6-17.3,38.6-38.6v-0.1c0-0.6,0-1.2,0-1.8c-13.4,37.6-72,21.3-72,21.3
		C24.4,73.7,36.8,81.4,51,81.4z"/>
	<g>
		<linearGradient id="SVGID_6_" gradientUnits="userSpaceOnUse" x1="6.0162" y1="19.716" x2="59.7547" y2="50.982">
			<stop  offset="0" style="stop-color:#EE738B"/>
			<stop  offset="1" style="stop-color:#A11156"/>
		</linearGradient>
		<path class="st5" d="M81.4,19.1L64.1,29.1c-3.5-4.7-9.2-7.8-15.5-7.8C38,21.4,29.3,30,29.3,40.7c0,2.8,0.6,5.4,1.6,7.8L0,66.5
			l6.1-12.5c2.3-4.7,3.4-9.8,3.3-15v-0.4C9.5,17.3,26.8,0,48.1,0C62.3,0,74.7,7.7,81.4,19.1z"/>
		
			<linearGradient id="SVGID_7_" gradientUnits="userSpaceOnUse" x1="593.855" y1="-137.1949" x2="546.6956" y2="-135.1105" gradientTransform="matrix(-1 0 0 -1 599.3673 -115.9653)">
			<stop  offset="0" style="stop-color:#FFFFFF"/>
			<stop  offset="0.9984" style="stop-color:#FFFFFF;stop-opacity:0"/>
		</linearGradient>
		<path class="st6" d="M48,0C26.6,0,9.4,17.3,9.4,38.6v0.1c0,0.6,0,1.2,0,1.8c13.4-37.6,72-21.3,72-21.3C74.6,7.7,62.2,0,48,0z"/>
	</g>
	<g>
		
			<linearGradient id="SVGID_8_" gradientUnits="userSpaceOnUse" x1="546.7104" y1="-190.0829" x2="539.2847" y2="-201.4168" gradientTransform="matrix(-1 0 0 -1 612.2915 -173.7465)">
			<stop  offset="0" style="stop-color:#FFFFFF"/>
			<stop  offset="8.819947e-02" style="stop-color:#F8F9FB"/>
			<stop  offset="0.2246" style="stop-color:#E3E8EE"/>
			<stop  offset="0.3923" style="stop-color:#C2CCDA"/>
			<stop  offset="0.5846" style="stop-color:#91A9BE"/>
			<stop  offset="0.7948" style="stop-color:#50829F"/>
			<stop  offset="1" style="stop-color:#005F80"/>
		</linearGradient>
		<path class="st7" d="M65.3,28.5l16-9.4C78.8,15,75.7,11.4,72,8.4L55.4,22C59.3,23.1,62.8,25.4,65.3,28.5z"/>
		
			<linearGradient id="SVGID_9_" gradientUnits="userSpaceOnUse" x1="598.4268" y1="-223.966" x2="591.0011" y2="-235.2999" gradientTransform="matrix(-1 0 0 -1 612.2915 -173.7465)">
			<stop  offset="0" style="stop-color:#FFFFFF"/>
			<stop  offset="8.819947e-02" style="stop-color:#F8F9FB"/>
			<stop  offset="0.2246" style="stop-color:#E3E8EE"/>
			<stop  offset="0.3923" style="stop-color:#C2CCDA"/>
			<stop  offset="0.5846" style="stop-color:#91A9BE"/>
			<stop  offset="0.7948" style="stop-color:#50829F"/>
			<stop  offset="1" style="stop-color:#005F80"/>
		</linearGradient>
		<path class="st8" d="M32.4,47.9C31.6,46,31.1,44,31,42L1.6,66L32.4,47.9z"/>
	</g>
</g>
</svg>
